<svg viewBox="0 0 37.52 20.4" xmlns="http://www.w3.org/2000/svg" xmlns:xlink="http://www.w3.org/1999/xlink"><clipPath id="a"><path d="m.02.01h189.92v20.37h-189.92z"/></clipPath><g fill="#f79426"><g clip-path="url(#a)"><path d="m7.5 16.37c1.6 0 2.89-1.23 2.89-3.47s-1.15-3.53-2.8-3.53c-1.49 0-2.86 1.12-2.86 3.42 0 1.93 1 3.58 2.77 3.58m-7.5-14.82a1.37 1.37 0 0 1 1.56-1.55h1.77a1.37 1.37 0 0 1 1.54 1.55v4.32a11.66 11.66 0 0 1 -.06 1.23h.06a5 5 0 0 1 4-1.82c3.79 0 6.42 3.08 6.42 7.48 0 4.65-2.91 7.62-6.64 7.62a4.55 4.55 0 0 1 -4.12-2h-.08a1.73 1.73 0 0 1 0 .28v.11c0 .76-.53 1.29-1.54 1.29h-1.35a1.37 1.37 0 0 1 -1.56-1.56z"/><path d="m17.52 7.15a1.38 1.38 0 0 1 1.48-1.54h1.57a1.36 1.36 0 0 1 1.53 1.54v.26a3.43 3.43 0 0 1 0 .36h.06a5.08 5.08 0 0 1 4.59-2.49c2.91 0 5.18 1.34 5.18 5.4v7.82a1.37 1.37 0 0 1 -1.53 1.5h-1.76a1.37 1.37 0 0 1 -1.54-1.54v-6.88c0-1.34-.53-1.9-1.6-1.9-2.16 0-3.14 1.79-3.14 3.83v5a1.37 1.37 0 0 1 -1.54 1.49h-1.82a1.37 1.37 0 0 1 -1.54-1.54z"/></g><circle cx="35.43" cy="17.97" r="2.08"/></g></svg>