<svg viewBox="0 0 89.3 89.3"><path d="m44.7 3c-11.5 0-21.9 4.7-29.5 12.2-7.5 7.6-12.2 18-12.2 29.5s4.7 21.9 12.2 29.5c7.5 7.5 18 12.2 29.5 12.2s21.9-4.7 29.5-12.2c7.5-7.5 12.2-18 12.2-29.5s-4.7-21.9-12.2-29.5c-7.6-7.5-18-12.2-29.5-12.2z" fill="none"/><path d="m44.7 0c-24.7 0-44.7 20-44.7 44.7s20 44.7 44.7 44.7 44.7-20 44.7-44.7c-.1-24.7-20.1-44.7-44.7-44.7zm29.4 74.1c-7.5 7.5-18 12.2-29.5 12.2s-21.9-4.7-29.5-12.2c-7.4-7.5-12.1-17.9-12.1-29.4s4.7-21.9 12.2-29.5c7.6-7.5 18-12.2 29.5-12.2s21.9 4.7 29.5 12.2c7.5 7.5 12.2 18 12.2 29.5-.1 11.5-4.7 21.9-12.3 29.4z" fill="#262626"/><path d="m28.2 39.9c.8 0 1.5-.7 1.5-1.5v-11.7l11.8 11.8 2.1-2.1-14.3-14.3c-.4-.4-1.1-.6-1.6-.3-.6.2-.9.8-.9 1.4v15.2c-.1.8.6 1.5 1.4 1.5zm2.1 9.8-11.2-11.2c-.4-.4-1.1-.6-1.6-.3-.6.2-.9.8-.9 1.4v15.2c0 .8.7 1.5 1.5 1.5s1.5-.7 1.5-1.5v-11.6l8.6 8.6zm41.6-11.5c-.6-.2-1.2-.1-1.6.3l-25.6 25.6-11.2-11.2 11.2-11.2 10.1 10.1 2.1-2.1-10.1-10.1 12.8-12.8v11.6c0 .8.7 1.5 1.5 1.5s1.5-.7 1.5-1.5v-15.3c0-.6-.4-1.2-.9-1.4-.6-.2-1.2-.1-1.6.3l-40.1 40.1c-.6.6-.6 1.5 0 2.1s1.5.6 2.1 0l9.2-9.2 12.3 12.3c.6.6 1.5.6 2.1 0l12.3-12.3 9.2 9.2c.6.6 1.5.6 2.1 0s.6-1.5 0-2.1l-9.2-9.2 9.7-9.7v11.6c0 .8.7 1.5 1.5 1.5s1.5-.7 1.5-1.5v-15.2c0-.6-.3-1.2-.9-1.4z" fill="#4d4d4f"/></svg>