<svg viewBox="0 0 98 28.253"><path d="m27.369 0v8.008a7.064 7.064 0 1 0 3.531 6.118v-14.126zm-3.531 17.658a3.532 3.532 0 1 1 3.532-3.532 3.531 3.531 0 0 1 -3.532 3.532zm-16.775-10.595a7.063 7.063 0 1 0 7.063 7.063 7.063 7.063 0 0 0 -7.063-7.063zm0 10.595a3.532 3.532 0 1 1 3.532-3.532 3.531 3.531 0 0 1 -3.532 3.532zm87.405-17.658v8.008a7.064 7.064 0 1 0 3.532 6.118v-14.126zm-3.531 17.658a3.532 3.532 0 1 1 3.532-3.532 3.531 3.531 0 0 1 -3.532 3.532zm-16.775-10.595a7.063 7.063 0 1 0 7.063 7.063 7.063 7.063 0 0 0 -7.063-7.063zm0 10.595a3.532 3.532 0 1 1 3.532-3.532 3.531 3.531 0 0 1 -3.532 3.532zm-33.55-10.595a7.063 7.063 0 1 0 7.063 7.063 7.063 7.063 0 0 0 -7.063-7.063zm0 10.595a3.532 3.532 0 1 1 3.532-3.532 3.531 3.531 0 0 1 -3.532 3.532zm13.244 10.594v-8.008a7.064 7.064 0 1 0 -3.532-6.118v14.127h3.532zm3.532-17.657a3.532 3.532 0 1 1 -3.532 3.532 3.531 3.531 0 0 1 3.532-3.532z"/></svg>