<svg viewBox="0 0 192.76 192.76" xmlns="http://www.w3.org/2000/svg"><g fill-rule="evenodd"><path d="m111.17 75.95-15.83 40.42h-2.61l15.82-40.42z" fill="#231f20"/><path d="m2.83 75.76h40.48v41.13h-40.48z" fill="#a25641"/><g fill="#231f20" transform="translate(-209 -300)"><path d="m385 401.95-4.49-14.22-4.51 14.22zm.1-25.31 13.82 39.36h-9.63l-2.37-7.37h-12.78l-2.32 7.37h-9.63l13.73-39.36h9.23z"/><path d="m356.51 394.63v21.37h-6.91v-3.66a9.42 9.42 0 0 1 -3.31 3.13 13.36 13.36 0 0 1 -3.8 1.38q-.94.16-1.85.24t-1.75.08l-.49.05s-.06-.05-.07-.05h-.07q-1.09 0-3.51-.21a14.86 14.86 0 0 1 -5.09-1.49 16.71 16.71 0 0 1 -6.39-6q-2.89-4.32-2.89-13.24 0-9.23 4.67-15t14.64-5.73h.49q5.68 0 8.89 2.2a16.14 16.14 0 0 1 4.79 4.8 15.62 15.62 0 0 1 1.85 4.35q.47 2 .52 2.55h-9.53a6.91 6.91 0 0 0 -1.7-4.24q-1.6-1.91-5.11-2-4.25.05-6.25 2.33a12.54 12.54 0 0 0 -2.74 5 18.7 18.7 0 0 0 -.57 3.29q-.12 1.59-.12 2.65 0 6.63 2.49 9.52a9.19 9.19 0 0 0 5.46 3.37 4 4 0 0 0 .74.13h.69a8 8 0 0 0 5.88-2.39 8.44 8.44 0 0 0 2.32-5.36h-7.31v-7.16h16z"/><path d="m271.94 394.31h7.55a7.59 7.59 0 0 0 3.73-1.06q1.7-1 1.7-3.87 0-3.08-1.7-4.08a8.06 8.06 0 0 0 -4.17-1h-7.11v10zm-9.13-17.67h19.25q6.66 0 9.38 3.37a12.1 12.1 0 0 1 2.72 7.83 10.77 10.77 0 0 1 -1.48 6.07 9.43 9.43 0 0 1 -3.26 3.16 4.73 4.73 0 0 1 -.67.34l-.62.24v.16a5.91 5.91 0 0 1 3.93 2.89 12 12 0 0 1 1.21 4.32q0 .58.07 1.17t0 1.17q0 3.55.22 5.17a7.26 7.26 0 0 0 .86 2.84 1.37 1.37 0 0 0 .15.32l.2.32h-9.28a7.44 7.44 0 0 1 -1.06-2.86 45.71 45.71 0 0 1 -.37-5.52c0-.18 0-.37 0-.58s0-.41 0-.58a7 7 0 0 0 -1.21-3.42q-1.06-1.57-4.72-1.57h-6.17v14.52h-9.16v-39.36z"/></g></g></svg>
